# AST/ASF file generated using VICON BodyLanguage
# -----------------------------------------------
:version 1.10
:name VICON
:units
  mass 1.0
  length 0.45
  angle deg
:documentation
   .ast/.asf automatically generated from VICON data using
   VICON BodyBuilder and BodyLanguage model FoxedUp or BRILLIANT.MOD
:root
   order TX TY TZ RX RY RZ
   axis XYZ
   position 0 0 0  
   orientation 0 0 0 
:bonedata
  begin
     id 1 
     name lhipjoint
     direction 0.682418 -0.694059 0.22932 
     length 2.25561 
     axis 0 0 0  XYZ
  end
  begin
     id 2 
     name lfemur
     direction 0.34202 -0.939693 0  
     length 6.96448  
     axis 0 0 20  XYZ
    dof rx ry rz
    limits (-160.0 20.0)
           (-70.0 70.0)
           (-60.0 70.0)
  end
  begin
     id 3 
     name ltibia
     direction 0.34202 -0.939693 0   
     length 6.88553   
     axis 0 0 20   XYZ
    dof rx
    limits (-10.0 170.0)
  end
  begin
     id 4 
     name lfoot
     direction 0.0723587 -0.198804 0.977364   
     length 1.88518   
     axis -90 7.62852e-016 20   XYZ
    dof rx rz
    limits (-45.0 90.0)
           (-70.0 20.0)
  end
  begin
     id 5 
     name ltoes
     direction 1.53558e-011 -4.21962e-011 1   
     length 0.952124   
     axis -90 7.62852e-016 20   XYZ
    dof rx
    limits (-90.0 20.0)
  end
  begin
     id 6 
     name rhipjoint
     direction -0.657603 -0.71533 0.236348   
     length 2.18854  
     axis 0 0 0  XYZ 
  end
  begin
     id 7 
     name rfemur
     direction -0.34202 -0.939693 0   
     length 6.86686   
     axis 0 0 -20   XYZ
    dof rx ry rz
    limits (-160.0 20.0)
           (-70.0 70.0)
           (-70.0 60.0)
  end
  begin
     id 8 
     name rtibia
     direction -0.34202 -0.939693 0   
     length 6.59503   
     axis 0 0 -20   XYZ
    dof rx
    limits (-10.0 170.0)
 end
 begin
     id 9 
     name rfoot
     direction -0.101977 -0.280179 0.954516   
     length 1.93723  
     axis -90 -7.62852e-016 -20   XYZ
    dof rx rz
    limits (-45.0 90.0)
           (-20.0 70.0)
  end
  begin
     id 10 
     name rtoes
     direction -1.53564e-011 -4.21897e-011 1   
     length 0.970315   
     axis -90 -7.62852e-016 -20   XYZ
    dof rx
    limits (-90.0 20.0)
  end
  begin
     id 11 
     name lowerback
     direction -0.0339559 0.999421 -0.00235966   
     length 1.88543   
     axis 0 0 0   XYZ
    dof rx ry rz
    limits (-20.0 45.0)
           (-30.0 30.0)
           (-30.0 30.0)
  end
  begin
     id 12 
     name upperback
     direction 0.00401003 0.999739 0.0224689   
     length 1.8856   
     axis 0 0 0   XYZ
    dof rx ry rz
    limits (-20.0 45.0)
           (-30.0 30.0)
           (-30.0 30.0)
  end
  begin
     id 13 
     name thorax
     direction 0.0198619 0.999546 0.0226536   
     length 1.88352   
     axis 0 0 0   XYZ
    dof rx ry rz
    limits (-20.0 45.0)
           (-30.0 30.0)
           (-30.0 30.0)
  end
  begin
     id 14 
     name lowerneck
     direction -0.0461848 0.998632 0.0245198   
     length 1.34895   
     axis 0 0 0   XYZ
    dof rx ry rz
    limits (-20.0 45.0)
           (-30.0 30.0)
           (-30.0 30.0)
  end
  begin
     id 15 
     name upperneck
     direction -0.0180627 0.994724 -0.100984   
     length 1.35214   
     axis 0 0 0   XYZ
    dof rx ry rz
    limits (-20.0 45.0)
           (-30.0 30.0)
           (-30.0 30.0)
  end
  begin
     id 16
     name head
     direction -0.00374772 0.999293 -0.037403  
     length 1.3568  
     axis 0 0 0   XYZ
    dof rx ry rz
    limits (-20.0 45.0)
           (-30.0 30.0)
           (-30.0 30.0)
  end
  begin
     id 17 
     name lclavicle
     direction 0.971773 0.191119 0.138311  
     length 2.84954  
     axis 0 0 0   XYZ
    dof ry rz
    limits (-20.0 10.0)
           (0.0 20.0)
  end
  begin
     id 18 
     name lhumerus
     direction 1 -4.4897e-011 -2.43761e-027   
     length 4.40919   
     axis 180 -30 -90   XYZ
    dof rx ry rz
    limits (-60.0 90.0)
           (-90.0 90.0)
           (-90.0 90.0)
  end
  begin
     id 19
     name lradius
     direction 1 -4.4896e-011 -9.1621e-027   
     length 3.03857   
     axis 180 -30 -90   XYZ
    dof rx
    limits (-10.0 170.0)
  end
  begin
     id 20
     name lwrist
     direction 1 -4.4896e-011 -1.41363e-026   
     length 1.51928   
     axis 1.07133e-014 90 90   XYZ
    dof ry
    limits (-180.0 0.0)
 end
  begin
     id 21 
     name lhand
     direction 1 -4.48978e-011 -2.82725e-026   
     length 0.523208   
     axis 1.80403e-014 90 90   XYZ
    dof rx rz
    limits (-90.0 90.0)
           (-45.0 45.0)
  end
  begin
     id 22 
     name lfingers
     direction 1 -4.48977e-011 -5.6545e-026   
     length 0.421824   
     axis 3.60806e-014 90 90   XYZ
    dof rx
    limits (0.0 90.0)
  end
  begin
     id 23
     name lthumb
     direction 0.707107 -6.34962e-011 0.707107   
     length 0.605657   
     axis -90 45 2.85299e-015   XYZ
    dof rx rz
    limits (-45.0 45.0)
           (-45.0 45.0)
  end
  begin
     id 24 
     name rclavicle
     direction -0.957247 0.24311 0.156766   
     length 3.12406  
     axis 0 0 0   XYZ 
    dof ry rz
    limits (-10.0 20.0)
           (-20.0 0.0)
  end
  begin
     id 25 
     name rhumerus
     direction -1 -4.48964e-011 -1.70632e-027  
     length 4.61969   
     axis 180 30 90   XYZ
    dof rx ry rz
    limits (-90.0 60.0)
           (-90.0 90.0)
           (-90.0 90.0)
  end
  begin
     id 26 
     name rradius
     direction -1 -4.48966e-011 -6.60395e-027   
     length 3.09382   
     axis 180 30 90   XYZ
    dof rx
    limits (-10.0 170.0)
  end
  begin
     id 27 
     name rwrist
     direction -1 -4.48963e-011 -1.41363e-026   
     length 1.54691   
     axis 1.07133e-014 -90 -90   XYZ
    dof ry
    limits (-180.0 0.0)
  end
  begin
     id 28
     name rhand
     direction -1 -4.49013e-011 -2.82725e-026   
     length 0.500896   
     axis 1.80403e-014 -90 -90   XYZ
    dof rx rz
    limits (-90.0 90.0)
           (-45.0 45.0)
  end
  begin
     id 29
     name rfingers
     direction -1 -4.48902e-011 -5.6545e-026   
     length 0.403835   
     axis 3.60806e-014 -90 -90   XYZ
    dof rx
    limits (0.0 90.0)
  end
  begin
     id 30
     name rthumb
     direction -0.707107 -6.34953e-011 0.707107   
     length 0.579829   
     axis -90 -45 -2.85299e-015   XYZ
    dof rx rz
    limits (-45.0 45.0)
           (-45.0 45.0)
  end
:hierarchy
  begin
    root lhipjoint rhipjoint lowerback
    lhipjoint lfemur
    lfemur ltibia
    ltibia lfoot
    lfoot ltoes
    rhipjoint rfemur
    rfemur rtibia
    rtibia rfoot
    rfoot rtoes
    lowerback upperback
    upperback thorax
    thorax lowerneck lclavicle rclavicle
    lowerneck upperneck
    upperneck head
    lclavicle lhumerus
    lhumerus lradius
    lradius lwrist
    lwrist lhand lthumb
    lhand lfingers
    rclavicle rhumerus
    rhumerus rradius
    rradius rwrist
    rwrist rhand rthumb
    rhand rfingers
  end

#!OML:ASF E:\madness\Project 1\Capture day 1\Session 1\Female1.ASF
:FULLY-SPECIFIED
:DEGREES
474
root 12.8395 14.491 -4.92857 374.558 -34.9096 -358.063
lowerback 23.506 5.02188 -0.440044
upperback 8.21443 5.92274 -2.86552
thorax -3.72749 2.83741 -4.366
lowerneck -1.58091 -4.65732 -1.7027
upperneck 11.1379 -6.04262 -0.988265
head 3.92698 -3.08021 -0.265428
rclavicle -5.64548e-014 8.07066e-014
rhumerus 57.9759 -27.4427 -50.0445
rradius 145.694
rwrist -19.8165
rhand -29.0712 -44.4681
rfingers 7.12502
rthumb -2.42047 -74.4341
lclavicle -5.64548e-014 8.07066e-014
lhumerus 48.2293 16.5206 46.2055
lradius 146.382
lwrist -10.5814
lhand -38.0698 -68.9543
lfingers 7.12502
lthumb -11.1066 -39.2682
rfemur -37.312 -8.27471 19.4107
rtibia 69.8593
rfoot -32.1544 -18.5864
rtoes 3.8362
lfemur -59.991 -13.8959 0.285605
ltibia 41.4091
lfoot -6.35069 -6.51366
ltoes -7.38113
475
root 12.84 14.4603 -5.01323 374.745 -34.4197 -358.165
lowerback 23.2183 5.40074 -1.22147
upperback 8.58051 6.28747 -2.20188
thorax -3.32621 2.9995 -3.25877
lowerneck -1.70552 -4.56958 -2.16354
upperneck 10.8864 -5.88655 -1.11004
head 3.87372 -3.02553 -0.219171
rclavicle 4.65156e-014 -9.93923e-015
rhumerus 58.0185 -27.5523 -49.7472
rradius 145.773
rwrist -20.0936
rhand -28.9587 -45.0083
rfingers 7.12502
rthumb -2.31186 -74.9755
lclavicle 4.65156e-014 -9.93923e-015
lhumerus 46.7347 15.7937 45.2554
lradius 146.602
lwrist -13.0957
lhand -42.0054 -68.5428
lfingers 7.12502
lthumb -14.9003 -39.0987
rfemur -37.1832 -8.0343 19.672
rtibia 69.4024
rfoot -33.3412 -18.2304
rtoes 0.21127
lfemur -60.4019 -13.8397 0.66972
ltibia 41.0334
lfoot -5.99748 -6.9264
ltoes -7.36952
476
root 12.8531 14.4189 -5.09985 375.063 -33.9813 -358.077
lowerback 22.7233 5.66332 -1.98275
upperback 8.90537 6.51473 -1.67695
thorax -2.86673 3.09236 -2.26697
lowerneck -1.83908 -4.53094 -3.14847
upperneck 10.9303 -5.83052 -0.551644
head 3.97316 -3.01367 0.129804
rclavicle -5.28767e-014 4.45278e-014
rhumerus 58.1575 -27.463 -49.6267
rradius 145.647
rwrist -20.4637
rhand -29.0865 -44.4761
rfingers 7.12502
rthumb -2.43524 -74.442
lclavicle -5.28767e-014 4.45278e-014
lhumerus 46.0288 16.9542 45.7797
lradius 147.181
lwrist -9.44182
lhand -37.2848 -67.2956
lfingers 7.12502
lthumb -10.3494 -37.5702
rfemur -37.6933 -7.89084 19.7587
rtibia 69.2637
rfoot -34.2119 -17.8213
rtoes -1.13895
lfemur -61.1751 -13.9192 1.11039
ltibia 40.6407
lfoot -5.49414 -7.15284
ltoes -8.13715
477
root 12.8661 14.3841 -5.18634 375.215 -33.6647 -357.904
lowerback 22.3897 5.91127 -2.85705
upperback 9.19557 6.69859 -1.12166
thorax -2.54811 3.15291 -1.19256
lowerneck -2.06721 -4.41058 -3.99216
upperneck 10.964 -5.62673 -0.405484
head 4.06505 -2.94147 0.325531
rclavicle -6.2816e-014 5.32743e-014
rhumerus 58.7064 -27.3997 -49.7041
rradius 145.336
rwrist -21.3164
rhand -28.9032 -43.4852
rfingers 7.12502
rthumb -2.25818 -73.453
lclavicle -6.2816e-014 5.32743e-014
lhumerus 44.5752 17.9369 45.5844
lradius 147.546
lwrist -8.20995
lhand -36.526 -68.0454
lfingers 7.12502
lthumb -9.61735 -38.2849
rfemur -38.2369 -7.73426 19.7878
rtibia 69.3213
rfoot -34.7645 -17.959
rtoes -1.76352
lfemur -61.7695 -14.1466 1.53865
ltibia 40.2479
lfoot -5.08695 -7.06873
ltoes -8.88338
478
root 12.8829 14.3562 -5.27271 375.196 -33.5101 -357.82
lowerback 22.5526 6.32277 -3.50687
upperback 9.33267 7.10659 -0.618495
thorax -2.61978 3.32537 -0.412204
lowerneck -2.09108 -4.42771 -4.75439
upperneck 11.0804 -5.60255 -0.394475
head 4.14241 -2.9608 0.459508
rclavicle 1.66979e-014 -3.97569e-014
rhumerus 59.1061 -28.4752 -49.9511
rradius 145.282
rwrist -22.946
rhand -28.6642 -43.5104
rfingers 7.12502
rthumb -2.02742 -73.4805
lclavicle 1.66979e-014 -3.97569e-014
lhumerus 43.6875 17.7196 45.5727
lradius 147.534
lwrist -8.58236
lhand -38.8337 -69.7931
lfingers 7.12502
lthumb -11.8433 -40.148
rfemur -38.6802 -7.56591 19.8737
rtibia 69.5498
rfoot -35.2707 -18.1119
rtoes -1.38522
lfemur -62.0805 -14.4586 2.06289
ltibia 39.8879
lfoot -4.57054 -6.71241
ltoes -7.64302
479
root 12.9008 14.3312 -5.36077 375.102 -33.5566 -357.795
lowerback 22.8872 6.61663 -4.14205
upperback 9.52321 7.34727 -0.167402
thorax -2.71471 3.41372 0.330877
lowerneck -1.73953 -4.56297 -2.70844
upperneck 9.91659 -5.69872 -2.90539
head 3.49714 -3.01569 -0.683677
rclavicle 4.53229e-014 -2.22639e-014
rhumerus 59.2716 -26.8839 -49.3026
rradius 144.852
rwrist -22.0052
rhand -28.7575 -43.8733
rfingers 7.12502
rthumb -2.11753 -73.8426
lclavicle 4.53229e-014 -2.22639e-014
lhumerus 43.3842 17.7112 45.9759
lradius 147.749
lwrist -7.43734
lhand -31.3004 -65.0192
lfingers 7.12502
lthumb -4.57319 -35.0886
rfemur -39.0942 -7.47445 20.025
rtibia 69.8138
rfoot -35.6535 -18.2228
rtoes 0.710713
lfemur -62.1904 -14.6773 2.59929
ltibia 39.5931
lfoot -4.03365 -6.22825
ltoes -6.35806
480
root 12.9336 14.2972 -5.44406 375.182 -33.4445 -357.696
lowerback 23.1264 6.61101 -4.30398
upperback 9.57327 7.29604 -0.0194171
thorax -2.81303 3.38009 0.57016
lowerneck -1.57552 -4.45297 -1.58528
upperneck 9.15148 -5.51747 -4.37493
head 3.12273 -2.93031 -1.31793
rclavicle -1.03368e-014 4.05521e-014
rhumerus 59.5926 -26.2076 -49.358
rradius 144.585
rwrist -22.274
rhand -28.9098 -44.3465
rfingers 7.12502
rthumb -2.26459 -74.3143
lclavicle -1.03368e-014 4.05521e-014
lhumerus 42.811 17.58 45.8753
lradius 147.109
lwrist -9.1775
lhand -37.8061 -70.2011
lfingers 7.12502
lthumb -10.8523 -40.5015
rfemur -39.8659 -7.72538 20.1913
rtibia 70.0872
rfoot -35.8468 -18.3513
rtoes 4.05498
lfemur -62.6966 -15.0177 3.20141
ltibia 39.3414
lfoot -3.6099 -5.8139
ltoes -6.99333
481
root 12.9604 14.273 -5.52608 375.145 -33.5485 -357.679
lowerback 23.5905 6.63516 -4.32975
upperback 9.56207 7.28501 -0.0221744
thorax -3.05331 3.37212 0.540004
lowerneck 0.0458913 -3.92002 2.77071
upperneck 7.47885 -4.81541 -7.93632
head 2.10218 -2.5129 -3.14035
rclavicle -1.1609e-013 6.67916e-014
rhumerus 59.9443 -26.5563 -49.9355
rradius 144.541
rwrist -23.4287
rhand -28.867 -44.5124
rfingers 7.12502
rthumb -2.22325 -74.4806
lclavicle -1.1609e-013 6.67916e-014
lhumerus 41.8658 17.4818 45.3996
lradius 146.861
lwrist -10.2153
lhand -40.0535 -73.3961
lfingers 7.12502
lthumb -13.0193 -43.8224
rfemur -40.339 -7.67502 20.3851
rtibia 70.2086
rfoot -36.1371 -18.5978
rtoes 4.57819
lfemur -62.8931 -15.3511 3.85929
ltibia 39.1018
lfoot -3.31337 -5.3225
ltoes -7.67555
482
root 12.9856 14.2534 -5.60979 375.045 -33.6735 -357.733
lowerback 24.2872 6.61521 -4.136
upperback 9.50325 7.24548 -0.0819268
thorax -3.42455 3.35542 0.312255
lowerneck -0.204262 -3.73299 2.68633
upperneck 7.73696 -4.54182 -8.10639
head 2.24832 -2.39254 -3.1973
rclavicle -3.49861e-014 6.83819e-014
rhumerus 59.8884 -25.709 -49.9095
rradius 144.318
rwrist -23.1034
rhand -28.9082 -44.3416
rfingers 7.12502
rthumb -2.26306 -74.3093
lclavicle -3.49861e-014 6.83819e-014
lhumerus 40.4933 17.5564 44.5487
lradius 146.789
lwrist -10.9438
lhand -40.0809 -74.7237
lfingers 7.12502
lthumb -13.0457 -45.1516
rfemur -40.5453 -7.49278 20.6146
rtibia 70.1793
rfoot -36.734 -18.7187
rtoes 3.72555
lfemur -62.9111 -15.6484 4.5223
ltibia 38.813
lfoot -2.86498 -4.7889
ltoes -7.08049
